# DDD
mtllib skybox.mtl

v -16 -16 -16
vt 0.25 0.5
vn 0 0 1
v 16 -16 -16
vt 0.5 0.5
vn 0 0 1
v 16 16 -16
vt 0.5 0.75
vn 0 0 1
usemtl 3221225471
f 1/1/1 2/2/2 3/3/3

v 16 16 -16
vt 0.5 0.75
vn 0 0 1
v -16 16 -16
vt 0.25 0.75
vn 0 0 1
v -16 -16 -16
vt 0.25 0.5
vn 0 0 1
usemtl 3221225471
f 4/4/4 5/5/5 6/6/6

v 16 -16 16
vt 0.25 0
vn 0 0 -1
v -16 -16 16
vt 0.25 0.25
vn 0 0 -1
v -16 16 16
vt 0.5 0.25
vn 0 0 -1
usemtl 3221225471
f 7/7/7 8/8/8 9/9/9

v -16 16 16
vt 0.5 0.25
vn 0 0 -1
v 16 16 16
vt 0.5 0
vn 0 0 -1
v 16 -16 16
vt 0.25 0
vn 0 0 -1
usemtl 3221225471
f 10/10/10 11/11/11 12/12/12

v -16 16 16
vt 0.5 0.25
vn 0 -1 0
v -16 16 -16
vt 0.5 0.5
vn 0 -1 0
v 16 16 -16
vt 0.75 0.5
vn 0 -1 0
usemtl 3221225471
f 13/13/13 14/14/14 15/15/15

v 16 16 -16
vt 0.75 0.5
vn 0 -1 0
v 16 16 16
vt 0.75 0.25
vn 0 -1 0
v -16 16 16
vt 0.5 0.25
vn 0 -1 0
usemtl 3221225471
f 16/16/16 17/17/17 18/18/18

v 16 -16 16
vt 0 0.25
vn 0 1 0
v 16 -16 -16
vt 0 0.5
vn 0 1 0
v -16 -16 -16
vt 0.25 0.5
vn 0 1 0
usemtl 3221225471
f 19/19/19 20/20/20 21/21/21

v -16 -16 -16
vt 0.25 0.5
vn 0 1 0
v -16 -16 16
vt 0.25 0.25
vn 0 1 0
v 16 -16 16
vt 0 0.25
vn 0 1 0
usemtl 3221225471
f 22/22/22 23/23/23 24/24/24

v -16 -16 16
vt 0.25 0.25
vn 1 0 0
v -16 -16 -16
vt 0.25 0.5
vn 1 0 0
v -16 16 -16
vt 0.5 0.5
vn 1 0 0
usemtl 3221225471
f 25/25/25 26/26/26 27/27/27

v -16 16 -16
vt 0.5 0.5
vn 1 0 0
v -16 16 16
vt 0.5 0.25
vn 1 0 0
v -16 -16 16
vt 0.25 0.25
vn 1 0 0
usemtl 3221225471
f 28/28/28 29/29/29 30/30/30

v 16 16 16
vt 0.75 0.25
vn -1 0 0
v 16 16 -16
vt 0.75 0.5
vn -1 0 0
v 16 -16 -16
vt 1 0.5
vn -1 0 0
usemtl 3221225471
f 31/31/31 32/32/32 33/33/33

v 16 -16 -16
vt 1 0.5
vn -1 0 0
v 16 -16 16
vt 1 0.25
vn -1 0 0
v 16 16 16
vt 0.75 0.25
vn -1 0 0
usemtl 3221225471
f 34/34/34 35/35/35 36/36/36

